HIERARCHY
ROOT Hips
{
  OFFSET 3.13124 94.3669 -3.18751
  CHANNELS  6 Xposition Yposition Zposition Zrotation Xrotation Yrotation
  JOINT LeftUpLeg
  {
    OFFSET 8.64259 1.95398 -2.38835
    CHANNELS 3 Zrotation Xrotation Yrotation
    JOINT LeftLeg
    {
      OFFSET 43.7702 0 0
      CHANNELS 3 Zrotation Xrotation Yrotation
      JOINT LeftFoot
      {
        OFFSET 40.6238 0 0
        CHANNELS 3 Zrotation Xrotation Yrotation
        JOINT LeftToeBase
        {
          OFFSET 12.7242 0 0
          CHANNELS 3 Zrotation Xrotation Yrotation
          End Site
          {
            OFFSET 0 0 0
          }
        }
      }
    }
  }
  JOINT RightUpLeg
  {
    OFFSET -8.2249 1.95398 -2.59336
    CHANNELS 3 Zrotation Xrotation Yrotation
    JOINT RightLeg
    {
      OFFSET 43.5653 0 0
      CHANNELS 3 Zrotation Xrotation Yrotation
      JOINT RightFoot
      {
        OFFSET 40.6238 0 0
        CHANNELS 3 Zrotation Xrotation Yrotation
        JOINT RightToeBase
        {
          OFFSET 12.7242 0 0
          CHANNELS 3 Zrotation Xrotation Yrotation
          End Site
          {
            OFFSET 0 0 0
          }
        }
      }
    }
  }
  JOINT Spine
  {
    OFFSET 0.165834 0.87714 6.61349
    CHANNELS 3 Zrotation Xrotation Yrotation
    JOINT Spine1
    {
      OFFSET 7.38962 1.71661e-005 0
      CHANNELS 3 Zrotation Xrotation Yrotation
      JOINT Spine2
      {
        OFFSET 11.9445 1.14441e-005 0
        CHANNELS 3 Zrotation Xrotation Yrotation
        JOINT Spine3
        {
          OFFSET 14.7254 4.19617e-005 0
          CHANNELS 3 Zrotation Xrotation Yrotation
          JOINT Spine4
          {
            OFFSET 10.9679 0 0
            CHANNELS 3 Zrotation Xrotation Yrotation
            JOINT RightShoulder
            {
              OFFSET 2.46616 -1.6653 3.69651
              CHANNELS 3 Zrotation Xrotation Yrotation
              JOINT RightArm
              {
                OFFSET 13.0012 0 0
                CHANNELS 3 Zrotation Xrotation Yrotation
                JOINT RightForeArm
                {
                  OFFSET 28.7848 1.52588e-005 0
                  CHANNELS 3 Zrotation Xrotation Yrotation
                  JOINT RightHand
                  {
                    OFFSET 26.5688 1.52588e-005 0
                    CHANNELS 3 Zrotation Xrotation Yrotation
                    End Site
                    {
                      OFFSET 0 0 0
                    }
                  }
                }
              }
            }
            JOINT LeftShoulder
            {
              OFFSET 2.38034 -1.29275 -3.75231
              CHANNELS 3 Zrotation Xrotation Yrotation
              JOINT LeftArm
              {
                OFFSET 16.3182 6.10352e-005 0
                CHANNELS 3 Zrotation Xrotation Yrotation
                JOINT LeftForeArm
                {
                  OFFSET 27.0901 0 0
                  CHANNELS 3 Zrotation Xrotation Yrotation
                  JOINT LeftHand
                  {
                    OFFSET 24.5451 1.52588e-005 0
                    CHANNELS 3 Zrotation Xrotation Yrotation
                    End Site
                    {
                      OFFSET 0 0 0
                    }
                  }
                }
              }
            }
            JOINT Neck
            {
              OFFSET 5.0226 -0.0266342 0
              CHANNELS 3 Zrotation Xrotation Yrotation
              JOINT Head
              {
                OFFSET 6.69363 2.86102e-005 0
                CHANNELS 3 Zrotation Xrotation Yrotation
                End Site
                {
                  OFFSET 0 0 0
                }
              }
            }
          }
        }
      }
    }
  }
}
MOTION
Frames:	16
Frame Time:	0.0333333
81.8645 90.1785 -12.547 89.0579 -18.9025 76.374 -173.894 14.6256 73.1466 -17.2554 11.3288 -7.19184 59.4933 -6.2335 -4.37838 28.7808 5.65769e-006 2.47258e-006 178.516 -3.61534 78.8459 -48.344 -19.5441 -1.48451 29.7272 7.87683 9.35654 28.7808 1.2097e-005 1.44224e-005 1.87642 6.55255 -87.3897 13.7899 4.14922 2.40977 2.12366 4.25096 2.22466 -20.429 3.23311 3.54537 -0.416322 3.2331 3.54535 81.7297 -41.9008 -116.617 38.5826 -2.54326 -10.8188 -6.84521 -2.29796 -61.8971 18.8363 0.0300476 -4.77509 -63.8528 -65.9666 114.905 6.38081 -22.1199 5.61801 1.49621 -67.8028 -2.21744 18.3377 2.98729 12.3778 10.0193 -7.88945 26.7455 -27.5245 -2.00774 -50.3187 
83.7449 89.9774 -12.0505 89.8968 -24.9235 75.6897 -174.423 13.1354 72.332 -19.1741 6.72086 -6.5015 62.3782 -6.75349 -4.36406 28.7808 5.65769e-006 2.47258e-006 179.911 1.85137 75.5856 -57.6844 -14.8289 -1.41498 31.5602 5.39405 6.48536 28.7808 1.2097e-005 1.44224e-005 1.94254 6.75746 -87.1972 13.3977 4.1472 2.32553 1.73156 4.24509 2.14061 -20.8227 3.25546 3.46433 -0.810031 3.25546 3.46432 81.5479 -41.5258 -117.07 34.5415 2.97627 -16.4256 -13.6648 -8.29777 -54.8395 18.601 -1.18618 -11.9343 -64.9376 -65.7267 113.574 5.43453 -22.4152 3.12597 1.50063 -65.6941 -2.2568 18.3363 1.41172 3.84091 9.91985 -8.53488 28.3298 -24.2097 -4.97054 -48.9114 
85.5889 89.8673 -11.4933 90.7079 -29.7171 75.5615 -174.907 11.5318 71.7124 -20.379 2.73159 -6.05353 64.3364 -7.0831 -4.32881 28.7808 5.65769e-006 2.47258e-006 -178.696 5.68043 73.6801 -63.9948 -8.92031 -1.22698 37.8985 0.856179 1.51278 28.7808 1.2097e-005 1.44224e-005 1.9564 6.92741 -87.1131 13.0682 4.0931 2.22075 1.40208 4.18684 2.0383 -21.1533 3.23905 3.34859 -1.14069 3.23903 3.34857 81.5552 -41.3036 -117.153 30.3807 7.78585 -20.5148 -10.4518 -6.40603 -51.6084 22.3793 -0.462918 -7.20223 -67.7143 -65.5059 110.08 6.74234 -23.2625 0.887594 1.52602 -60.1626 -2.34924 15.1215 0.899559 2.06582 8.85295 -9.39164 29.4973 -20.737 -7.61969 -47.9729 
87.2781 89.6617 -11.0862 91.3598 -32.9705 75.4227 -175.437 9.78488 70.8787 -20.5289 -0.211537 -5.96724 66.2502 -6.95157 -4.01303 28.7808 5.65769e-006 2.47258e-006 -177.092 10.0485 71.8922 -69.659 -4.06745 -1.08084 45.0948 -2.85426 -1.81382 28.7808 1.2097e-005 1.44224e-005 1.85814 7.01487 -87.1035 12.8878 3.90587 2.17635 1.22121 3.9978 2.00153 -21.3312 3.07181 3.2487 -1.31852 3.07183 3.24869 82.2371 -41.4361 -115.985 27.198 11.5342 -24.3226 -5.9378 -2.88978 -46.4819 19.5633 0.117438 -4.18878 -71.5999 -65.0869 105.158 9.22182 -24.4519 -0.939811 1.57133 -53.5331 -2.44909 11.126 0.61542 1.65992 6.98365 -10.1523 30.1824 -17.8853 -9.43908 -47.1691 
88.9725 89.1256 -10.6308 92.3639 -34.8978 76.0527 -176.69 5.35851 70.4609 -15.5519 -0.110155 -5.65622 73.8954 -6.27941 -2.82851 28.7808 5.65769e-006 2.47258e-006 -175.974 13.8654 71.2253 -73.6418 1.57578 -0.843881 49.6113 -6.3607 -4.36775 28.7808 1.2097e-005 1.44224e-005 1.68457 7.06175 -87.4269 12.7772 3.53877 2.18174 1.1095 3.63135 2.02363 -21.4361 2.71972 3.14453 -1.42349 2.7197 3.14451 82.326 -41.8723 -115.649 24.3372 14.8329 -26.3366 3.88546 7.92181 -44.4971 9.32366 0.525677 0.815825 -74.9675 -63.5348 100.891 11.1516 -25.9325 -4.2023 1.58262 -52.0465 -2.47046 11.7672 0.338555 -0.904045 4.97164 -10.5511 29.8115 -16.5174 -10.0199 -46.0534 
90.6247 88.8541 -10.1171 94.1535 -35.6584 77.4105 -177.382 2.06429 70.2426 -14.0541 0.17039 -5.38064 77.5065 -5.19034 -2.00578 28.7808 5.65769e-006 2.47258e-006 -175.366 16.6413 71.1041 -75.5713 4.34165 -0.72442 51.5535 -9.38155 -6.44867 28.7808 1.2097e-005 1.44224e-005 1.40064 7.12156 -87.6278 12.6452 3.02228 2.16695 0.97619 3.11454 2.03227 -21.5618 2.23268 2.97146 -1.54917 2.23268 2.97144 82.3715 -43.0135 -115.09 22.0546 17.3036 -27.8299 18.0171 24.4806 -45.7508 -5.41507 -0.0344059 -5.13915 -77.7704 -61.6371 97.2246 12.7027 -27.593 -8.14563 1.60037 -49.912 -2.50094 13.499 0.169746 -2.58299 2.64438 -10.6517 28.3814 -15.9253 -9.66163 -44.6746 
92.1933 89.0714 -9.56509 95.6166 -35.6957 79.1411 -177.754 -0.395416 70.6665 -13.6175 -0.388259 -5.09391 78.0382 -4.37457 -1.61104 28.7808 5.65769e-006 2.47258e-006 -175.536 18.4316 71.758 -74.1432 5.64306 -0.613036 54.46 -9.36904 -6.14985 28.7808 1.2097e-005 1.44224e-005 1.13414 7.11063 -87.8342 12.6552 2.50908 1.97438 0.985261 2.5935 1.86203 -21.549 1.79991 2.637 -1.53634 1.79989 2.63699 82.6825 -44.517 -113.977 19.4553 20.2469 -25.6914 32.6741 36.0507 -53.5417 -12.0736 0.679075 -12.1269 -81.3321 -60.38 92.4111 13.7872 -28.8538 -10.9484 1.61586 -48.1392 -2.52598 11.4951 -0.940582 -11.3562 0.139528 -10.5771 26.9572 -16.4795 -8.72034 -43.4289 
93.6021 89.2457 -8.9626 96.0678 -35.3975 80.5714 -177.805 -1.97617 71.4515 -13.1875 0.273773 -4.6241 78.2664 -4.13893 -1.4926 28.7808 5.65769e-006 2.47258e-006 -175.676 21.4229 72.4976 -72.4126 3.77959 -0.688601 49.9342 -16.673 -12.0606 28.7808 1.2097e-005 1.44224e-005 0.869429 7.00023 -87.9782 12.8787 2.03349 1.81253 1.20818 2.11126 1.72105 -21.3238 1.39485 2.3399 -1.3111 1.39482 2.33987 83.711 -46.358 -111.648 17.0958 23.0735 -20.3183 49.7242 40.5159 -66.5571 -11.9053 0.964456 -15.2467 -84.2534 -58.9759 88.3345 15.0117 -30.9592 -16.0172 1.61214 -48.5542 -2.52015 13.6598 -0.685503 -8.60379 -2.83028 -10.3573 24.0788 -16.6465 -7.67264 -41.4493 
94.9341 89.6646 -8.38008 96.0904 -34.501 82.0996 -178.143 -3.80874 72.5301 -11.2194 0.747085 -3.96769 77.7938 -3.89177 -1.38769 28.7808 5.65769e-006 2.47258e-006 -176.653 22.6912 73.9814 -67.1567 4.29866 -0.534426 55.1762 -14.9628 -9.88863 28.7808 1.2097e-005 1.44224e-005 0.599191 6.86373 -88.3574 13.1454 1.53827 1.57083 1.47437 1.60577 1.50519 -21.0566 0.995942 1.95791 -1.04396 0.995935 1.95791 85.8993 -47.1764 -107.949 15.0862 24.7974 -13.2098 59.7038 41.2003 -74.0932 -3.56537 0.27017 -16.3804 -87.4344 -58.3192 83.8947 14.4923 -32.2232 -20.6594 1.60437 -49.4485 -2.50748 11.4692 -1.44207 -15.2937 -6.09695 -10.3251 21.0634 -16.1098 -7.17841 -39.3662 
96.2046 89.9797 -7.88086 95.7643 -33.2527 83.3688 -177.787 -4.7919 73.7915 -10.7208 1.59851 -3.61728 77.3358 -2.74487 -0.923937 28.7808 5.65769e-006 2.47258e-006 -177.022 25.7044 75.0761 -64.3243 -3.75841 -0.935441 46.7455 -20.2212 -15.5224 28.7808 1.2097e-005 1.44224e-005 0.225322 6.74921 -88.4689 13.3709 0.858987 1.54522 1.69941 0.926176 1.50424 -20.829 0.354797 1.73239 -0.816314 0.354798 1.73237 87.3365 -48.8734 -105.206 12.7713 26.2609 -7.50003 55.6485 39.9164 -71.5064 0.657101 -0.0621237 -8.66096 -88.8794 -56.4079 81.5872 13.8694 -33.4601 -25.3921 1.60406 -49.4609 -2.5073 5.89334 -0.760409 -13.6152 -8.35508 -9.83565 15.4862 -15.0334 -6.80685 -35.1708 
97.3775 90.5029 -7.41509 95.2629 -31.7326 84.4876 -177.274 -5.91134 75.173 -9.80845 7.97303 -2.23568 73.8992 2.25662 1.17719 28.7808 5.65769e-006 2.47258e-006 -178.016 26.8506 76.9941 -58.02 -3.4612 -0.787214 47.2322 -19.535 -14.8513 28.7808 1.2097e-005 1.44224e-005 -0.175367 6.66125 -88.617 13.5435 0.139844 1.59821 1.87158 0.210038 1.59051 -20.6559 -0.346889 1.56638 -0.643287 -0.346901 1.56637 88.5309 -50.8462 -102.852 10.3366 27.305 -1.67506 48.7966 37.9373 -67.0206 3.98272 0.0398244 -3.33367 -90.2973 -54.2785 79.1857 10.7202 -33.5345 -30.6678 1.4136 -47.0945 -2.83616 6.93456 -1.11612 -16.9144 -9.76698 -9.3464 9.73467 -14.0092 -6.63496 -30.7534 
98.4797 90.7505 -6.95842 94.6793 -30.4395 85.0442 -176.617 -6.45323 76.4214 -9.55527 9.76265 -2.35834 73.1049 2.64486 1.35918 28.7808 5.65769e-006 2.47258e-006 -178.062 30.8115 77.8754 -56.3302 -14.2516 -1.35637 30.0546 -22.5605 -22.8646 28.7808 1.2097e-005 1.44224e-005 -0.494373 6.60639 -88.6469 13.6533 -0.431808 1.66613 1.98128 -0.358071 1.68352 -20.5475 -0.912538 1.45941 -0.534885 -0.91255 1.45941 89.5583 -52.4706 -100.92 8.84874 26.8077 2.52467 33.8636 34.8786 -55.5339 4.09274 0.0839117 -2.36502 -92.6032 -52.6876 75.5195 6.69547 -36.1993 -21.9766 -14.8956 -32.6507 -31.7629 5.10417 -0.445205 -9.77997 -10.2418 -8.84894 5.29487 -13.5258 -6.38001 -27.2397 
99.638 90.9885 -6.48096 94.084 -29.8081 85.2792 -176.278 -7.33643 77.2968 -8.30145 10.8018 -2.65025 72.5777 1.7205 0.946184 28.7808 5.65769e-006 2.47258e-006 -178.28 33.8218 78.8281 -53.5329 -20.9584 -1.69162 20.5208 -21.8009 -25.708 28.7808 1.2097e-005 1.44224e-005 -0.728781 6.56768 -88.7434 13.7336 -0.845306 1.72966 2.06176 -0.768402 1.76521 -20.4691 -1.326 1.39573 -0.456449 -1.32603 1.39571 90.1913 -53.7802 -99.6973 7.50184 25.9308 6.99458 22.4895 30.9176 -45.7748 3.33541 0.137543 -0.351228 -94.8286 -51.9943 72.1356 3.71051 -36.6169 -21.4855 -15.0808 -24.6954 -39.0418 2.66827 -0.109321 -4.78316 -10.0347 -8.35637 2.3609 -13.2597 -6.06582 -24.6864 
100.766 91.3503 -5.99657 93.3373 -29.7388 85.5924 -176.252 -8.65247 78.1502 -5.67029 11.5199 -2.70803 71.1169 1.18829 0.728641 28.7808 5.65769e-006 2.47258e-006 -179.434 32.5248 80.4868 -44.2688 -12.861 -1.06153 35.1397 -19.9252 -18.3914 28.7808 1.2097e-005 1.44224e-005 -0.848829 6.5367 -89.0762 13.8055 -1.1471 1.76034 2.13377 -1.06854 1.80843 -20.3993 -1.62316 1.33457 -0.386696 -1.62318 1.33456 90.8839 -54.8167 -98.4752 7.77707 24.0865 10.6355 13.076 26.1249 -36.2199 0.135754 0.010098 0.704619 -97.9077 -52.2783 67.7993 0.697667 -35.7376 -25.63 -15.8005 -24.401 -40.5868 6.49372 -0.0916093 -4.33459 -9.11541 -8.21025 -0.230857 -13.627 -5.97156 -22.0963 
101.915 91.5458 -5.43523 92.3134 -29.9069 85.8607 -175.992 -9.21757 79.1756 -4.2192 10.9747 -3.27288 70.94 -0.40165 -0.0151275 28.7808 5.65769e-006 2.47258e-006 179.743 32.1158 82.1215 -36.4427 -10.5518 -0.826703 44.1741 -16.5526 -13.0873 28.7808 1.2097e-005 1.44224e-005 -0.909702 6.47189 -89.4793 13.9485 -1.35379 1.73364 2.27699 -1.27621 1.79217 -20.2584 -1.81223 1.24657 -0.245769 -1.81225 1.24656 91.5201 -55.7315 -97.3826 7.09649 23.402 18.0865 11.5742 24.0501 -35.5829 0.693227 0.100247 6.31959 -102.543 -52.6883 61.4073 -1.18328 -36.0631 -25.6655 -16.1131 -20.4064 -46.1579 6.99859 0.806537 6.28284 -8.4541 -8.06177 -2.25692 -13.858 -5.86619 -19.972 
102.901 91.6907 -4.7404 90.7954 -30.4801 85.9487 -175.525 -8.56879 80.2893 -4.27819 11.6514 -3.3807 71.1654 -1.23231 -0.404066 28.7808 5.65769e-006 2.47258e-006 178.936 30.1081 84.4502 -25.0897 -2.87422 -0.278031 54.1017 -8.92432 -5.7945 28.7808 1.2097e-005 1.44224e-005 -0.919336 6.34428 -89.878 14.2147 -1.46409 1.64433 2.54347 -1.39041 1.70694 -19.9937 -1.89008 1.12992 0.0189251 -1.89008 1.1299 92.2414 -56.7873 -96.1662 7.86304 22.2769 23.8611 12.3274 25.7392 -35.2914 -2.97958 -0.325807 9.35964 -106.228 -53.9637 56.8217 -4.78937 -33.6966 -28.8439 -21.0822 -23.6387 -49.5354 9.08953 0.987541 6.41526 -7.92977 -7.89342 -3.6227 -14.0962 -5.71783 -18.3851 
